<?xml version="1.0" encoding="UTF-8"?>
<svg width="128" height="128" version="1.1" viewBox="0 0 33.867 33.867" xmlns="http://www.w3.org/2000/svg">
 <path d="m16.803 4.2654a12.668 12.668 0 0 0-12.668 12.668 12.668 12.668 0 0 0 12.668 12.668 12.668 12.668 0 0 0 12.668-12.668 12.668 12.668 0 0 0-0.36949-2.9084l-2.1487 2.1487a10.21 10.21 0 0 1 0.059946 0.75965 10.21 10.21 0 0 1-10.21 10.21 10.21 10.21 0 0 1-10.21-10.21 10.21 10.21 0 0 1 10.21-10.21 10.21 10.21 0 0 1 8.5815 4.7336l1.7746-1.7746a12.668 12.668 0 0 0-10.356-5.4173z" fill="#ee4e5f" stroke-width=".96501"/>
 <path d="m8.1071 17.034 7.9779 7.9779 15.956-15.956-1.1132-1.1132-13.683 13.683-6.8647-6.8647z" fill="#ee4e5f" stroke-width=".965"/>
</svg>
